<svg xmlns="http://www.w3.org/2000/svg" xmlns:xlink="http://www.w3.org/1999/xlink" width="96" height="80" viewBox="0 0 96 80"><defs><path id="kz57a" d="M913.82 1970.51c-.29-.28-7.04-7.12-8.79-15.85a1.67 1.67 0 0 1 3.27-.65c1.55 7.74 7.82 14.08 7.88 14.14a1.66 1.66 0 1 1-2.36 2.36zm7.85-36.18v40c0 .92-.75 1.67-1.67 1.67h-10c-.44 0-.87-.18-1.18-.49-.83-.84-20.49-20.72-20.49-41.18a1.67 1.67 0 0 1 3.34 0c0 17.39 16.06 35.19 19.04 38.34h7.62v-38.34a1.67 1.67 0 0 1 3.34 0zm-3.34 73.34v-25h-7.17c-1.41 3.92-6.16 8.37-6.16 25a1.67 1.67 0 0 1-3.33 0c0-20.1 6.5-26.6 6.78-27.29.26-.63.87-1.05 1.55-1.05h10c.92 0 1.67.75 1.67 1.67v26.67a1.67 1.67 0 0 1-3.34 0zm-30.82-29.78a1.67 1.67 0 0 1 0 2.88l-20 11.67A1.67 1.67 0 0 1 865 1991v-23.33a1.66 1.66 0 0 1 2.5-1.44zm-4.15 1.44l-15.03-8.76v17.53zm-41.81 1.05c.27.7 6.78 7.2 6.78 27.29a1.67 1.67 0 0 1-3.33 0c0-16.65-4.75-21.08-6.16-25h-7.17v25a1.67 1.67 0 0 1-3.34 0V1981c0-.92.75-1.67 1.67-1.67h10c.68 0 1.3.42 1.55 1.05zM835 1971a1.66 1.66 0 0 1-1.18-2.85c.06-.06 6.33-6.42 7.88-14.14a1.66 1.66 0 1 1 3.27.65c-1.75 8.73-8.5 15.56-8.8 15.85-.32.33-.74.49-1.17.49zm26.67-36.67c0 20.46-19.65 40.34-20.5 41.18-.3.31-.73.49-1.17.49h-10c-.92 0-1.67-.75-1.67-1.67v-40a1.67 1.67 0 0 1 3.34 0v38.34h7.62c2.98-3.15 19.04-20.95 19.04-38.34a1.67 1.67 0 0 1 3.34 0z"/></defs><g><g transform="translate(-827 -1931)"><use fill="#fff" xlink:href="#kz57a"/></g></g></svg>