<svg xmlns="http://www.w3.org/2000/svg" xmlns:xlink="http://www.w3.org/1999/xlink" width="15" height="24" viewBox="0 0 15 24"><defs><path id="k4ana" d="M713.35 2773.18h2.39v9.48c0 .19.16.34.35.34h4.05c.19 0 .35-.15.35-.34v-9.43h2.74c.18 0 .33-.13.35-.3l.42-3.5a.33.33 0 0 0-.09-.25.36.36 0 0 0-.26-.12h-3.16v-2.18c0-.66.37-1 1.1-1h2.06c.2 0 .35-.15.35-.34v-3.2a.35.35 0 0 0-.35-.34h-2.98c-.5 0-2.21.1-3.57 1.3a3.53 3.53 0 0 0-1.24 3.2v2.56h-2.5c-.2 0-.36.15-.36.34v3.44c0 .2.16.34.35.34z"/></defs><g><g transform="translate(-711 -2760)"><use fill="#fff" xlink:href="#k4ana"/></g></g></svg>