<svg xmlns="http://www.w3.org/2000/svg" xmlns:xlink="http://www.w3.org/1999/xlink" width="24" height="24" viewBox="0 0 24 24"><defs><path id="880la" d="M685 2767.8v9.4c0 3.2-2.6 5.8-5.8 5.8h-9.4a5.8 5.8 0 0 1-5.8-5.8v-9.4c0-3.2 2.6-5.8 5.8-5.8h9.4c3.2 0 5.8 2.6 5.8 5.8zm-1.86 9.4v-9.4a3.94 3.94 0 0 0-3.94-3.94h-9.4a3.94 3.94 0 0 0-3.94 3.94v9.4a3.94 3.94 0 0 0 3.94 3.94h9.4a3.94 3.94 0 0 0 3.94-3.94zm-3.23-4.7a5.42 5.42 0 1 1-10.83-.01 5.42 5.42 0 0 1 10.83.01zm-1.86 0a3.55 3.55 0 1 0-7.1 0 3.55 3.55 0 0 0 7.1 0zm3.05-6.6a1.37 1.37 0 0 1 0 1.94c-.25.26-.6.4-.96.4a1.38 1.38 0 0 1-1.37-1.36 1.37 1.37 0 0 1 1.37-1.37c.36 0 .71.14.96.4z"/></defs><g><g transform="translate(-662 -2760)"><use fill="#fff" xlink:href="#880la"/></g></g></svg>