<svg xmlns="http://www.w3.org/2000/svg" xmlns:xlink="http://www.w3.org/1999/xlink" width="24" height="24" viewBox="0 0 24 24"><defs><path id="n9npa" d="M621.05 2762.53a2.53 2.53 0 1 1-5.06 0 2.53 2.53 0 0 1 5.06 0zm-4.7 4.44h4.35V2781h-4.35zm20.65 6.33v7.7h-4.35v-6.82c0-1.63-.03-3.72-2.26-3.72-2.27 0-2.61 1.77-2.61 3.6v6.94h-4.35v-14.03h4.17v1.92h.06c.58-1.1 2-2.27 4.12-2.27 4.4 0 5.22 2.9 5.22 6.68z"/></defs><g><g transform="translate(-614 -2758)"><use fill="#fff" xlink:href="#n9npa"/></g></g></svg>