<svg xmlns="http://www.w3.org/2000/svg" xmlns:xlink="http://www.w3.org/1999/xlink" width="84" height="83" viewBox="0 0 84 83"><defs><path id="4zdfa" d="M497.85 1956.92c0 1.07-.87 1.93-1.94 1.93h-6.97a1.94 1.94 0 1 1 0-3.87h6.97c1.07 0 1.94.87 1.94 1.94zm69.15 0c0 1.07-.87 1.93-1.94 1.93h-6.97a1.94 1.94 0 1 1 0-3.87h6.97c1.07 0 1.94.87 1.94 1.94zm-63.1 25.8l-5.08 5.06a1.93 1.93 0 0 1-2.74-2.74l5.08-5.06a1.94 1.94 0 0 1 2.74 2.74zm50.47-50.39l-4.94 4.93a1.93 1.93 0 0 1-2.74-2.74l4.94-4.92a1.94 1.94 0 0 1 2.74 2.73zm-47.07 4.93a1.93 1.93 0 0 1-2.74 0l-4.93-4.93a1.93 1.93 0 1 1 2.74-2.73l4.93 4.92c.76.76.76 1.98 0 2.74zm50.62 50.52a1.93 1.93 0 0 1-2.74 0l-5.06-5.05a1.93 1.93 0 1 1 2.74-2.73l5.06 5.04c.75.76.75 1.98 0 2.74zm-6.62-28.12c0 6.5-2.33 13.51-6.4 19.21-3.13 4.38-4.78 9.26-4.78 14.1v12.16a3.88 3.88 0 0 1-3.87 3.87h-18.5a3.88 3.88 0 0 1-3.87-3.87v-12.16c0-4.84-1.65-9.72-4.78-14.1-4.07-5.7-6.4-12.7-6.4-19.2 0-14 10.9-25.38 24.3-25.38s24.3 11.38 24.3 25.37zm-15.05 45.47v-8.93h-18.5v2.53H527a1.94 1.94 0 1 1 0 3.87h-9.25v2.53h18.5zm-11.79-35.4l1.5 22.6h2.08l1.5-22.6c.02-.24.08-.47.18-.7l2.59-5.52h-10.62l2.6 5.53c.1.22.15.45.17.69zm22.97-10.07c0-11.86-9.17-21.5-20.43-21.5s-20.43 9.64-20.43 21.5c0 5.64 2.13 11.98 5.69 16.97a28.29 28.29 0 0 1 5.49 15.7h4.33l-1.46-21.98-3.73-7.95a1.93 1.93 0 0 1 1.75-2.76h16.72a1.94 1.94 0 0 1 1.75 2.76l-3.73 7.95-1.46 21.98h4.33a28.3 28.3 0 0 1 5.5-15.7c3.55-4.99 5.68-11.33 5.68-16.97z"/></defs><g><g transform="translate(-485 -1927)"><use fill="#fff" xlink:href="#4zdfa"/></g></g></svg>