<svg xmlns="http://www.w3.org/2000/svg" xmlns:xlink="http://www.w3.org/1999/xlink" width="76" height="76" viewBox="0 0 76 76"><defs><path id="zkvva" d="M211 1956.12v34.76a6.16 6.16 0 0 1-6.15 6.15h-2.63A36.37 36.37 0 0 1 174.5 2010a36.72 36.72 0 0 1-27.86-12.97h-2.5a6.16 6.16 0 0 1-6.14-6.15v-34.76a6.16 6.16 0 0 1 6.15-6.15h2.49A36.72 36.72 0 0 1 174.5 1937c11.05 0 21 5.07 27.72 12.97h2.63a6.16 6.16 0 0 1 6.15 6.15zm-25.7-12.94a31.89 31.89 0 0 1 3.97 6.8h7.06a32.19 32.19 0 0 0-11.03-6.8zm-20.84 6.8h20.08c-2.8-5.5-6.44-8.7-10.04-8.7-3.6 0-7.24 3.2-10.04 8.7zm-11.9 0h7.17c1.16-2.64 2.49-4.9 3.95-6.78a32.9 32.9 0 0 0-11.13 6.77zm11.12 53.82a31.92 31.92 0 0 1-3.95-6.77h-7.18a32.9 32.9 0 0 0 11.13 6.77zm20.86-6.79h-20.08c2.8 5.5 6.44 8.71 10.04 8.71 3.6 0 7.24-3.2 10.04-8.7zm11.79 0h-7.06a32 32 0 0 1-3.97 6.81 32.23 32.23 0 0 0 11.03-6.8zm3.06-4.26l-12.05-11.95-7.05 7.04a2.14 2.14 0 0 1-3.03-3.02l2.77-2.77-9.8-9.8-9.81 9.8 2.76 2.77a2.14 2.14 0 1 1-3.02 3.02l-7.05-7.04-10.72 10.72c.27.72.95 1.23 1.76 1.23h55.24zm7.33-36.63c0-1.03-.84-1.87-1.87-1.87h-60.7c-1.03 0-1.87.84-1.87 1.87v29.47l9.32-9.33a2.14 2.14 0 0 1 3.03 0l2.76 2.77 11.32-11.32a2.14 2.14 0 0 1 3.02 0l11.32 11.32 2.77-2.77a2.14 2.14 0 0 1 3.02 0l16.55 16.4a1.87 1.87 0 0 0 1.33-1.78zm-4.42 10.96a8.56 8.56 0 0 1-17.1 0 8.56 8.56 0 0 1 17.1 0zm-4.27 0a4.28 4.28 0 1 0-8.57.01 4.28 4.28 0 0 0 8.57 0z"/></defs><g><g transform="translate(-136 -1935)"><use fill="#fff" xlink:href="#zkvva"/></g></g></svg>