<svg xmlns="http://www.w3.org/2000/svg" xmlns:xlink="http://www.w3.org/1999/xlink" width="74" height="86" viewBox="0 0 74 86"><defs><path id="hkpqa" d="M1257.27 1987.5h-4.97a27.04 27.04 0 0 1-26.8 24.5 27.04 27.04 0 0 1-26.8-24.5h-4.97v-26.73a7.3 7.3 0 0 1 5.83-7.14 27 27 0 0 1 18.65-18.6v-3.6a2.43 2.43 0 0 1 2.43-2.43h9.72a2.43 2.43 0 0 1 2.43 2.43v3.6a27 27 0 0 1 18.65 18.6 7.3 7.3 0 0 1 5.83 7.14v8.3c5.37 0 5.37 18.44 0 18.44zm-24.48-41.31a12.18 12.18 0 0 1 4.62 7.29h8.88a22.33 22.33 0 0 0-13.5-13.34zm-1.42 12.15l-24.45 24.32h12.71l24.45-24.32h-12.71zm-8.3-14.34a12.16 12.16 0 0 1 4.86 0v-10.14h-4.86V1944zm-4.45 9.48h13.76a7.3 7.3 0 0 0-13.76 0zm-13.9 0h8.87c.6-2.96 2.28-5.54 4.62-7.29v-6.05a22.33 22.33 0 0 0-13.5 13.34zm-4.55 29.02l24.3-24.16h-23.45a2.43 2.43 0 0 0-2.43 2.43v19.46c0 1.04.66 1.93 1.58 2.27zm47.24 5h-43.82a22.1 22.1 0 0 0 21.91 19.64 22.1 22.1 0 0 0 21.91-19.63zm5-16.03l-11.28 11.19h8.85c1.34 0 2.43-1.1 2.43-2.43zm0-10.7c0-1.04-.66-1.93-1.58-2.27l-24.3 24.16h7.7l18.18-18.04zm4.86 12.16v7.3c0 .85-.14 1.67-.41 2.43h.41c2.68 0 2.68-9.73 0-9.73zm-24.48 21.89a7.3 7.3 0 0 1-14.58 0 2.43 2.43 0 1 1 4.86 0 2.43 2.43 0 0 0 4.86 0 2.43 2.43 0 1 1 4.86 0z"/></defs><g><g transform="translate(-1190 -1927)"><use xlink:href="#hkpqa"/></g></g></svg>